# xmcd CD database file
#
# Track frame offsets:
#	150
#	20681
#	41209
#	54686
#	72091
#	92499
#	106143
#	122694
#	136605
#	147676
#	162588
#	175356
#	189334
#	202785
#	215101
#	233830
#	250164
#	264286
#	277769
#
# Disc length: 3886 seconds
#
# Revision: 0
# Processed by: cddbd v1.5.2PL0 Copyright (c) Steve Scherf et al.
# Submitted via: CDex 1.51
#
DISCID=120f2c13
DTITLE=country cd 16 hans - country cd 16 hans
DYEAR=2007
DGENRE=Country
TTITLE0=El Bacalao
TTITLE1=Don't feel like dancing
TTITLE2=Rio
TTITLE3=Sunshine waltz
TTITLE4=This is Us
TTITLE5=Baby cha
TTITLE6=Leaving of Liverpool
TTITLE7=Rubitin
TTITLE8=Bed of Roses
TTITLE9=Makin Believe
TTITLE10=Long gone
TTITLE11=Walking Backwards
TTITLE12=Cajun Hustle
TTITLE13=One more cha
TTITLE14=Heart of an Angel]
TTITLE15=Jailhouse Creole
TTITLE16=Hillbilly
TTITLE17=Baby Blues
TTITLE18=Walla walla bing bang
EXTD=YEAR: 2007
EXTT0=
EXTT1=
EXTT2=
EXTT3=
EXTT4=
EXTT5=
EXTT6=
EXTT7=
EXTT8=
EXTT9=
EXTT10=
EXTT11=
EXTT12=
EXTT13=
EXTT14=
EXTT15=
EXTT16=
EXTT17=
EXTT18=
PLAYORDER=
